<svg width="512" height="512" viewBox="0 0 512 512" fill="none" xmlns="http://www.w3.org/2000/svg">
<g clip-path="url(#clip0_145_2)">
<circle cx="256" cy="256" r="256" fill="#FFE6F0"/>
<path d="M309.717 159.387C313.175 157.129 317.656 156 323.161 156H435.364C440.727 156 445.103 157.27 448.49 159.811C451.948 162.351 453.712 166.021 453.783 170.819C453.853 175.547 452.159 179.111 448.702 181.51C445.244 183.91 440.798 185.109 435.364 185.109L397.046 185.215L393.764 305.464C393.623 310.192 391.965 313.897 388.789 316.578C385.614 319.26 381.379 320.565 376.087 320.495C371.359 320.424 367.654 318.942 364.972 316.049C362.291 313.156 361.02 309.521 361.162 305.146L364.655 185.321C348.001 185.392 333.887 185.427 322.314 185.427C316.951 185.427 312.646 184.051 309.4 181.299C306.083 178.547 304.425 174.701 304.425 169.761C304.425 165.103 306.189 161.645 309.717 159.387Z" fill="black"/>
<path d="M64.7745 159.387C68.2323 157.129 72.7134 156 78.2177 156H190.421C195.785 156 200.16 157.27 203.547 159.811C207.005 162.351 208.769 166.021 208.84 170.819C208.91 175.547 207.217 179.111 203.759 181.51C200.301 183.91 195.855 185.109 190.421 185.109L152.103 185.215L148.821 305.464C148.68 310.192 147.022 313.897 143.846 316.578C140.671 319.26 136.437 320.565 131.144 320.495C126.416 320.424 122.711 318.942 120.029 316.049C117.348 313.156 116.078 309.521 116.219 305.146L119.712 185.321C103.058 185.392 88.9441 185.427 77.3709 185.427C72.0077 185.427 67.7031 184.051 64.4569 181.299C61.1402 178.547 59.4818 174.701 59.4818 169.761C59.4818 165.103 61.2461 161.645 64.7745 159.387Z" fill="black"/>
<path d="M161.559 366.153C161.559 361.425 162.935 357.684 165.687 354.932C168.369 352.109 172.003 350.733 176.59 350.804L321.396 354.085C325.983 354.156 329.653 355.638 332.405 358.531C335.228 361.425 336.604 365.306 336.533 370.175C336.463 374.621 334.91 378.043 331.876 380.443C329.053 382.842 325.454 384.006 321.079 383.936L175.849 380.337C171.615 380.266 168.192 378.961 165.581 376.42C162.97 373.809 161.63 370.387 161.559 366.153Z" fill="black"/>
</g>
<defs>
<clipPath id="clip0_145_2">
<rect width="512" height="512" fill="white"/>
</clipPath>
</defs>
</svg>
